<?xml version="1.0" encoding="utf-8" ?><svg xmlns="http://www.w3.org/2000/svg" xmlns:xlink="http://www.w3.org/1999/xlink" width="60" height="60" viewBox="0 0 60 60"><path fill="#1D3557" transform="matrix(0.117188 0 0 0.117188 0 3.8147e-06)" d="M240.124 73.7387C251.771 71.0381 261.779 71.9039 273.37 73.7387C275.699 73.2145 282.591 74.0915 285.211 74.5014C412.803 94.4648 481.558 239.981 413.062 348.822C410.786 352.422 398.75 369.632 395.859 370.469C395.733 375.911 396.31 383.09 396.536 388.695L397.448 415.974C398.267 436.801 401.803 439.438 378.255 439.399L351.264 439.392C349.093 439.584 344.173 439.417 341.818 439.413L140.246 439.398C134.591 439.398 122.886 440.634 118.262 437.534C113.435 432.816 115.258 423.775 115.458 417.252L116.3 390.751C116.496 385.103 116.986 379.518 116.73 373.85C113.852 372.555 104.655 359.071 102.462 355.836C55.0281 285.87 65.1152 190.795 122.528 129.549C147.645 102.756 176.267 88.0745 210.748 78.1093C214.964 76.8907 237.396 71.0208 240.124 73.7387Z"/><path fill="#A8DADC" transform="matrix(0.117188 0 0 0.117188 0 3.8147e-06)" d="M116.73 373.85C113.852 372.555 104.655 359.071 102.462 355.836C55.0281 285.87 65.1152 190.795 122.528 129.549C147.645 102.756 176.267 88.0745 210.748 78.1093C214.964 76.8907 237.396 71.0208 240.124 73.7387C211.274 83.1054 191.73 104.999 192.542 136.123L192.542 149.712C192.793 155.182 192.526 162.084 192.542 167.702C191.205 167.678 189.92 167.687 188.584 167.702C186.924 167.651 185.118 167.694 183.445 167.702C173.567 167.996 162.235 167.709 152.25 167.702L125.266 167.702C125.334 179.559 124.292 193.972 123.852 206.04L117.621 353.824C117.533 356.583 117.227 371.8 116.73 373.85Z"/><path fill="#274154" transform="matrix(0.117188 0 0 0.117188 0 3.8147e-06)" d="M152.25 136.123L192.542 136.123L192.542 149.712C192.793 155.182 192.526 162.084 192.542 167.702C191.205 167.678 189.92 167.687 188.584 167.702C186.924 167.651 185.118 167.694 183.445 167.702C173.567 167.996 162.235 167.709 152.25 167.702L152.25 136.123Z"/><path fill="#457B9D" transform="matrix(0.117188 0 0 0.117188 0 3.8147e-06)" d="M192.542 149.712C192.793 155.182 192.526 162.084 192.542 167.702C191.205 167.678 189.92 167.687 188.584 167.702C186.924 167.651 185.118 167.694 183.445 167.702C181.861 166.806 191.212 151.584 192.542 149.712Z"/><path fill="#A8DADC" transform="matrix(0.117188 0 0 0.117188 0 3.8147e-06)" d="M273.37 73.7387C275.699 73.2145 282.591 74.0915 285.211 74.5014C412.803 94.4648 481.558 239.981 413.062 348.822C410.786 352.422 398.75 369.632 395.859 370.469C395.185 365.407 395.145 357.196 394.961 351.892L387.414 181.85C387.346 180.055 387.081 168.876 386.807 167.771L386.389 167.702C378.848 166.946 367.289 167.608 359.47 167.702C357.371 167.878 352.311 167.728 349.963 167.727L331.112 167.702C328.412 167.594 325.668 167.466 322.973 167.702C321.69 167.65 320.516 167.678 319.237 167.702L319.237 147.678L319.237 136.123C319.737 110.923 304.555 87.3173 281.29 77.3791C278.806 76.3181 276.039 75.294 273.714 73.942L273.37 73.7387Z"/><path fill="#274154" transform="matrix(0.117188 0 0 0.117188 0 3.8147e-06)" d="M319.237 136.123L359.47 136.123L359.47 167.702C357.371 167.878 352.311 167.728 349.963 167.727L331.112 167.702C328.412 167.594 325.668 167.466 322.973 167.702C321.69 167.65 320.516 167.678 319.237 167.702L319.237 147.678L319.237 136.123Z"/><path fill="#457B9D" transform="matrix(0.117188 0 0 0.117188 0 3.8147e-06)" d="M319.237 147.678C323.182 151.573 329.38 162.684 331.112 167.702C328.412 167.594 325.668 167.466 322.973 167.702C321.69 167.65 320.516 167.678 319.237 167.702L319.237 147.678Z"/><path fill="#0B1325" transform="matrix(0.117188 0 0 0.117188 0 3.8147e-06)" d="M386.389 167.702L386.807 167.771C387.081 168.876 387.346 180.055 387.414 181.85L394.961 351.892C395.145 357.196 395.185 365.407 395.859 370.469C395.733 375.911 396.31 383.09 396.536 388.695L397.448 415.974C398.267 436.801 401.803 439.438 378.255 439.399L351.264 439.392C347.825 438.862 334.795 439.215 331.112 439.392L332.263 438.411C334.128 436.802 337.482 435.65 339.712 434.349C346.037 430.662 351.581 424.924 355.566 418.83C361.006 410.515 360.698 410.196 360.671 400.798L360.651 192.398C360.651 184.036 361.116 175.919 359.47 167.702L377.505 167.722C379.727 167.736 384.503 167.967 386.389 167.702Z"/><path fill="#2B4F6E" transform="matrix(0.117188 0 0 0.117188 0 3.8147e-06)" d="M125.266 167.702L152.25 167.702L152.25 383.061C152.249 390.764 151.909 401.426 152.25 408.919C148.897 411.699 118.833 436.386 118.262 437.534C113.435 432.816 115.258 423.775 115.458 417.252L116.3 390.751C116.496 385.103 116.986 379.518 116.73 373.85C117.227 371.8 117.533 356.583 117.621 353.824L123.852 206.04C124.292 193.972 125.334 179.559 125.266 167.702Z"/><path fill="#A8DADC" transform="matrix(0.117188 0 0 0.117188 0 3.8147e-06)" d="M240.124 73.7387C251.771 71.0381 261.779 71.9039 273.37 73.7387L273.714 73.942C276.039 75.294 278.806 76.3181 281.29 77.3791C304.555 87.3173 319.737 110.923 319.237 136.123L319.237 147.678L319.237 167.702C319.469 181.415 306.324 182.914 305.981 167.702L305.981 136.123L206.25 136.123L206.25 167.702C206.251 171.142 206.433 174.615 203.769 177.224C197.353 183.505 192.723 174.412 192.542 167.702C192.526 162.084 192.793 155.182 192.542 149.712L192.542 136.123C191.73 104.999 211.274 83.1054 240.124 73.7387Z"/><path fill="#0B1325" transform="matrix(0.117188 0 0 0.117188 0 3.8147e-06)" d="M240.124 73.7387C251.771 71.0381 261.779 71.9039 273.37 73.7387L273.714 73.942C276.039 75.294 278.806 76.3181 281.29 77.3791C304.555 87.3173 319.737 110.923 319.237 136.123L319.237 147.678L319.237 167.702C319.469 181.415 306.324 182.914 305.981 167.702L305.981 136.123C302.263 68.5655 207.923 69.8978 206.25 136.123L206.25 167.702C206.251 171.142 206.433 174.615 203.769 177.224C197.353 183.505 192.723 174.412 192.542 167.702C192.526 162.084 192.793 155.182 192.542 149.712L192.542 136.123C191.73 104.999 211.274 83.1054 240.124 73.7387Z"/><path fill="#457B9D" transform="matrix(0.117188 0 0 0.117188 0 3.8147e-06)" d="M206.25 136.123L305.981 136.123L305.981 167.702C305.191 167.717 303.503 167.797 302.797 167.702L210.292 167.702C209.529 167.619 207.133 167.693 206.25 167.702L206.25 136.123Z"/><path fill="#F1FAEE" transform="matrix(0.117188 0 0 0.117188 0 3.8147e-06)" d="M206.25 167.702C207.133 167.693 209.529 167.619 210.292 167.702C220.572 192.747 177.687 190.316 188.584 167.702C189.92 167.687 191.205 167.678 192.542 167.702C192.723 174.412 197.353 183.505 203.769 177.224C206.433 174.615 206.251 171.142 206.25 167.702Z"/><path fill="#F1FAEE" transform="matrix(0.117188 0 0 0.117188 0 3.8147e-06)" d="M319.237 167.702C320.516 167.678 321.69 167.65 322.973 167.702C334.157 189.591 292.489 193.192 302.797 167.702C303.503 167.797 305.191 167.717 305.981 167.702C306.324 182.914 319.469 181.415 319.237 167.702Z"/><path fill="#F1FAEE" transform="matrix(0.117188 0 0 0.117188 0 3.8147e-06)" d="M223.289 279.039C225.669 276.57 228.416 274.818 231.146 272.665C253.053 255.387 244.797 242.058 247.651 221.6C249.277 209.937 264.565 205.307 272.76 213.556C278.59 219.16 277.252 227.865 277.244 235.263L277.211 252.109C277.187 257.026 277.225 259.033 276.037 263.733L315.651 263.728C337.971 263.737 341.584 282.673 326.703 289.426C336.81 297.909 335.666 307.954 322.973 313.056C333.217 321.2 330.705 331.159 319.237 336.727C328.048 345.332 325.884 358.364 313.985 360.455C310.89 360.911 306.702 360.733 303.491 360.733L223.289 360.723C224.028 367.65 221.199 369.558 214.682 369.521L190.209 369.527C171.309 369.534 176.208 362.617 176.233 345.506L176.231 288.835C176.236 273.372 175.363 271.332 192.028 271.374L214.488 271.35C218.719 271.381 220.922 270.982 223.289 274.791C223.339 276.131 223.297 277.68 223.289 279.039Z"/><path fill="#457B9D" transform="matrix(0.117188 0 0 0.117188 0 3.8147e-06)" d="M223.289 360.723C224.028 367.65 221.199 369.558 214.682 369.521L190.209 369.527C171.309 369.534 176.208 362.617 176.233 345.506L176.231 288.835C176.236 273.372 175.363 271.332 192.028 271.374L214.488 271.35C218.719 271.381 220.922 270.982 223.289 274.791C223.339 276.131 223.297 277.68 223.289 279.039C222.846 280.807 223.295 295.337 223.296 298.072L223.289 360.723Z"/></svg>