<?xml version="1.0" encoding="utf-8" ?><svg xmlns="http://www.w3.org/2000/svg" xmlns:xlink="http://www.w3.org/1999/xlink" width="120" height="120" viewBox="0 0 120 120"><path fill="#5B4E3F" transform="matrix(0.234375 0 0 0.234375 0 7.62939e-06)" d="M270.599 232.771C283.366 232.139 281.079 245.424 281.072 254.085L281.063 279.749C291.898 280.043 309.281 278.466 319.382 280.007C329.605 281.566 332.507 299.809 314.143 300.757C328.723 306.869 324.653 320.474 310.176 321.362C323.525 328.484 318.429 342.924 304.716 341.773C311.037 344.819 314.329 350.62 310.176 357.016C305.194 361.924 290.591 359.936 283.395 359.928L232.071 359.935L232.071 296.744L239.519 296.744C241.897 294.745 244.718 291.35 246.971 288.978L263.231 272.022L263.207 251.004C263.193 243.107 261.043 235.45 270.599 232.771Z"/><path fill="#605243" transform="matrix(0.234375 0 0 0.234375 0 7.62939e-06)" d="M200.441 289.253C226.989 289.179 222.996 287.076 222.979 313.1L222.987 353.701L222.987 365.85C222.176 380.064 203.627 375.785 192.529 376.008C188.641 376.087 186.752 373.624 184.251 371.04L184.242 324.269C184.241 312.947 180.509 294.029 192.789 289.253C194.562 289.086 198.511 289.235 200.441 289.253Z"/><path fill="#605243" transform="matrix(0.234375 0 0 0.234375 0 7.62939e-06)" d="M200.441 289.253C226.989 289.179 222.996 287.076 222.979 313.1L222.987 353.701C195.874 343.616 200.184 313.151 200.441 289.253Z"/><path fill="#605243" transform="matrix(0.234375 0 0 0.234375 0 7.62939e-06)" d="M192.789 289.253C194.562 289.086 198.511 289.235 200.441 289.253C200.184 313.151 195.874 343.616 222.987 353.701L222.987 365.85C193.357 357.735 192.72 341.85 192.791 313.774C192.797 311.215 193.329 289.874 192.789 289.253Z"/><defs><linearGradient id="gradient_0" gradientUnits="userSpaceOnUse" x1="188.81732" y1="329.21118" x2="86.489601" y2="316.71353"><stop offset="0" stop-color="#E07A5F"/><stop offset="1" stop-color="#3D405B"/></linearGradient></defs><path fill="url(#gradient_0)" transform="matrix(0.234375 0 0 0.234375 0 7.62939e-06)" d="M129.299 201.003L129.276 177.641C129.231 163.979 127.26 159.677 142.141 159.224C160.077 159.153 178.085 159.667 196.012 159.243L196.012 172.241L143.009 172.241L143.009 324.723C143.031 326.278 143.076 327.851 143.009 329.405C142.673 342.55 143.016 357.297 143.013 370.539L142.996 386.271C142.993 387.909 142.874 392.345 143.009 393.681L142.996 406.018C142.917 416.201 142.176 420.283 153.588 423.745C160.668 423.711 168.733 423.565 175.761 423.745C173.693 424.999 166.696 423.833 165.956 424.424C167.584 425.397 170.058 428.442 171.157 429.895C172.867 432.156 180.159 436.407 181.104 438.264C183.646 438.97 193.971 437.886 197.838 439.032L159.403 439.032C156.372 439.204 151.499 439.044 148.36 439.041L108.251 439.043C87.4704 439.042 90.9813 435.567 91.7838 417.594L99.5243 221.206C99.745 214.733 100.239 207.366 99.7768 201.003L129.299 201.003Z"/><path transform="matrix(0.234375 0 0 0.234375 0 7.62939e-06)" d="M129.299 201.003L129.276 177.641C129.231 163.979 127.26 159.677 142.141 159.224C160.077 159.153 178.085 159.667 196.012 159.243L196.012 172.241L143.009 172.241L143.009 324.723C141.669 320.788 138.444 313.579 136.232 310.492C135.706 306.611 134.355 302.49 133.319 298.679C128.696 281.655 129.289 264.374 129.296 246.853L129.299 201.003Z"/><defs><linearGradient id="gradient_1" gradientUnits="userSpaceOnUse" x1="154.38446" y1="368.28754" x2="133.29863" y2="366.98914"><stop offset="0" stop-color="#605243"/><stop offset="1" stop-color="#7C471C"/></linearGradient></defs><path fill="url(#gradient_1)" transform="matrix(0.234375 0 0 0.234375 0 7.62939e-06)" d="M136.232 310.492C138.444 313.579 141.669 320.788 143.009 324.723C143.031 326.278 143.076 327.851 143.009 329.405C142.673 342.55 143.016 357.297 143.013 370.539L142.996 386.271C142.993 387.909 142.874 392.345 143.009 393.681L142.996 406.018C142.917 416.201 142.176 420.283 153.588 423.745C152.594 424.082 151.717 423.867 150.65 423.745C134.703 423.953 136.231 396.153 136.227 385.703L136.227 325.943C136.224 321.608 135.962 314.554 136.232 310.492Z"/><path fill="#4A4134" transform="matrix(0.234375 0 0 0.234375 0 7.62939e-06)" d="M153.588 423.745C160.668 423.711 168.733 423.565 175.761 423.745C173.693 424.999 166.696 423.833 165.956 424.424C167.584 425.397 170.058 428.442 171.157 429.895C172.867 432.156 180.159 436.407 181.104 438.264C183.646 438.97 193.971 437.886 197.838 439.032L159.403 439.032C161.258 439.049 174.458 438.71 175.619 438.392C174.722 437.255 163.184 426.317 160.819 424.355C158.963 424.351 157.295 424.194 155.455 424.136L155.464 425.043C155.03 425.119 151.703 423.987 150.65 423.745C151.717 423.867 152.594 424.082 153.588 423.745Z"/><path fill="#2B281E" transform="matrix(0.234375 0 0 0.234375 0 7.62939e-06)" d="M196.012 159.243L196.008 139.598C196.014 134.072 195.958 126.858 196.839 121.47C208.971 54.4105 307.911 58.0481 314.564 126.033C315.014 130.627 314.892 135.541 314.895 140.192L314.884 159.243L314.884 172.241C314.886 177.263 315.082 184.011 314.851 188.903C310.484 185.394 304.496 184.686 299.431 187.082L299.235 180.113C299.038 177.414 299.153 174.937 299.235 172.241L211.693 172.241C211.696 176.89 211.831 182.457 211.693 187.041C203.967 186.973 204.763 184.323 196.012 187.041L196.012 172.241L196.012 159.243ZM299.235 159.243L299.25 140.937C299.25 137.328 299.32 133.733 299.13 130.123C296.305 76.4124 216.415 74.6451 211.885 128.493C211.559 132.363 211.676 136.427 211.673 140.325L211.693 159.243L299.235 159.243Z"/><path transform="matrix(0.234375 0 0 0.234375 0 7.62939e-06)" d="M299.235 159.243L299.235 180.113C299.038 177.414 299.153 174.937 299.235 172.241L211.693 172.241L211.693 159.243L299.235 159.243Z"/><path transform="matrix(0.234375 0 0 0.234375 0 7.62939e-06)" d="M367.987 200.122C372.575 200.042 379.66 200.472 383.869 200.122C392.613 199.956 402.644 199.996 411.411 200.122C410.819 204.632 411.447 212.024 411.658 216.807L420.311 407.411C420.531 412.723 420.988 418.518 420.458 423.745C419.787 423.371 414.541 423.724 413.251 423.731L373.125 423.762C369.972 423.762 358.852 424.016 356.713 423.054C371.531 415.81 368 400.734 367.995 386.59L367.987 200.122Z"/><defs><linearGradient id="gradient_2" gradientUnits="userSpaceOnUse" x1="288.17145" y1="457.01099" x2="297.74057" y2="402.34778"><stop offset="0" stop-color="#3F495B"/><stop offset="1" stop-color="#3E3B10"/></linearGradient></defs><path fill="url(#gradient_2)" transform="matrix(0.234375 0 0 0.234375 0 7.62939e-06)" d="M175.761 423.745C179.827 423.552 185.877 423.74 190.087 423.741L336.204 423.755C342.67 423.755 350.438 424.033 356.713 423.054C358.852 424.016 369.972 423.762 373.125 423.762L413.251 423.731C414.541 423.724 419.787 423.371 420.458 423.745C423.072 437.554 419.14 439.06 407.232 439.05L197.838 439.032C193.971 437.886 183.646 438.97 181.104 438.264C180.159 436.407 172.867 432.156 171.157 429.895C170.058 428.442 167.584 425.397 165.956 424.424C166.696 423.833 173.693 424.999 175.761 423.745Z"/><path transform="matrix(0.234375 0 0 0.234375 0 7.62939e-06)" d="M143.009 329.405C143.992 331.385 143.035 333.516 143.729 334.935L143.984 334.869C143.579 331.412 146.708 332.442 145.773 329.644C146.251 330.079 148.7 334.607 149.327 335.591C160.287 352.784 170.789 365.93 185.819 380.179C179.63 382.356 174.426 383.106 169.624 388.113C164.073 393.9 161.065 394.499 153.692 392.623C147.892 391.148 147.394 392.704 144.653 386.252C142.528 381.252 144.582 339.717 143.341 337.895C142.936 343.369 143.518 392.789 143.009 393.681C142.874 392.345 142.993 387.909 142.996 386.271L143.013 370.539C143.016 357.297 142.673 342.55 143.009 329.405Z"/><path fill="#605243" transform="matrix(0.234375 0 0 0.234375 0 7.62939e-06)" d="M351.478 159.243L366.844 159.222C385.638 159.193 383.892 163.639 383.884 179.638L383.869 200.122C379.66 200.472 372.575 200.042 367.987 200.122L367.987 172.241C363.152 171.97 356.523 172.224 351.478 172.241C351.6 168.107 351.484 163.421 351.478 159.243Z"/><path fill="#5B4E3F" transform="matrix(0.234375 0 0 0.234375 0 7.62939e-06)" d="M299.431 187.082C304.496 184.686 310.484 185.394 314.851 188.903C319.936 192.99 321.701 199.951 319.176 205.967C316.652 211.983 310.449 215.6 303.97 214.835C297.491 214.069 292.302 209.106 291.249 202.668C290.196 196.229 293.534 189.871 299.431 187.082Z"/><path fill="#5B4E3F" transform="matrix(0.234375 0 0 0.234375 0 7.62939e-06)" d="M196.012 187.041C204.763 184.323 203.967 186.973 211.693 187.041C211.629 189.706 217.262 193.296 217.313 199.454C217.713 215.531 196.579 220.627 189.711 206.325C184.792 196.083 190.951 192.702 196.012 187.041Z"/><path fill="#605243" transform="matrix(0.234375 0 0 0.234375 0 7.62939e-06)" d="M314.884 159.243L351.478 159.243C351.484 163.421 351.6 168.107 351.478 172.241L314.884 172.241L314.884 159.243Z"/><path transform="matrix(0.234375 0 0 0.234375 0 7.62939e-06)" d="M349.459 99.4434C353.41 99.2189 359.519 99.9097 363.779 100.122C363.77 102.801 363.221 107.402 362.973 110.148L361.688 125.409C357.119 125.676 352.343 124.721 347.684 124.869C347.664 117.963 348.908 106.667 349.459 99.4434Z"/><path transform="matrix(0.234375 0 0 0.234375 0 7.62939e-06)" d="M386.902 121.915C387.916 122.155 395.268 130.971 396.546 132.482C390.937 136.084 383.176 142.534 378.088 146.95C374.717 143.629 371.307 139.974 367.987 136.566C373.885 131.836 380.862 126.482 386.902 121.915Z"/></svg>